<?xml version="1.0" encoding="UTF-8"?><svg id="Layer_2" xmlns="http://www.w3.org/2000/svg" viewBox="0 0 7005.92 798.83"><defs><style>.cls-1{fill:#000;stroke-width:0px;}</style></defs><g id="Layer_2-2"><path class="cls-1" d="M4478.28,0v63.62h-31.62v32.11h-63.77v31.77h-32.07v670.92h-223.78v-31.31h-31.65v-31.66h30.74V223.92h-30.54v-31.66h31.07v-32.09h160.1v-63.72h31.76V32.39h31.78V0h127.98Z"/><path class="cls-1" d="M7005.92,383.52h-63.07v-63.61h-32.01v-63.93h-31.57v-96.18h126.66v223.72Z"/><path class="cls-1" d="M3678.53,160.65v286.1h64.16V160.55h255.23v62.75h-30.59v511.52h30.34v63.8h-254.63v-286.78h-64.04v286.7h-255.32v-63.17h30.57V255.85h-31.16v-32.09h-31.49v-31.32h30.93v-31.77h256Z"/><path class="cls-1" d="M5885.92,223.52h-30.62v-31.33h31.16v-31.49h191.61v31.15h31.8v286.89h32.55v-31.05h31.46v-191.93h-30.65v-95.02h94.75v31.03h95.8v31.73h32.14v64.07h31.7v95.62h-31.22v64.06h-31.76v31.76h-31.82v32.14h63.11v96.02h32.14v63.73h31.26v95.95h-30.99v31.83h-159.45v-31.41h-32.05v-32.1h-32.12v-191.53h-31.77v-31.76h-32.17v223.12h30.89v63.53h-286.34v-63.21h30.6V223.52Z"/><path class="cls-1" d="M2846.71,160.64v30.97h63.76v31.77h63.76v96.02h31.61v32.03h-30.77v95.68h-63.78v64.09h31.18v31.77h31.77v127.98h63.6v95.95h-31.04v31.82h-159.44v-31.46h-32.06v-32.09h-32.12v-191.51h-31.78v-31.76h-32.15v222.82h30.54v63.86h-285.98v-63.22h30.6V223.86h-30.63v-63.08h222.64v30.57h64.22v-30.7h96.06ZM2719.44,224.13v254.65h32.02v-31.25h30.99v-192.17h-31.66v-31.23h-31.34Z"/><path class="cls-1" d="M1695.72,543.37h30.23v255.21h-126.54v-31.37h-32.06v-64.05h-31.75v-63.72h-32.12v-32.1h-32.13v-63.69h-31.79v-64.03h-32.14v-31.71h-31.73v254.97h30.85v32.11h31.56v31.7h-30.87v31.74h-159.46v-62.8h31.17v-64.04h32.1v-319.69h31.47v-32.14h-31.17v-64.05h-31.74v-31.77h-31.78v-63.29h254.67v62.91h32.14v31.77h31.77v64.06h32.14v64.07h32.14v63.64h31.69v-191.08h-30.84v-32.07h-31.61v-31.65h31.02v-31.53h159.06v62.54h-30.85v32.11h-32.12v255.44h-31.34v32.52Z"/><path class="cls-1" d="M478.39,702.98h-30.98v31.76h-32.13v32.1h-32.05v31.84h-223.45v-31.35h-64.02v-32.11h-32.13v-31.75h-31.78v-95.95H0v-255.56h31.24v-64.01h31.79v-31.7h32.12v-32.08h32.12v-31.76h63.73v-31.77h159.67v30.45h64.56v-30.56h63.25v254.26h-62.75v-63.05h-32.13v-64.05h-32.12v-31.72h-31.8v-31.74h-64.2v31.08h-31.63v479.27h127.36v-30.77h31.74v-32.08h32.12v-63.69h63.32v94.94Z"/><path class="cls-1" d="M4671.29,798.51v-63.02h30.73V224.05h-30.43v-32h30.81v-31.22h223.1v637.68h-254.21Z"/><path class="cls-1" d="M5309.95,223.7h-30.48v-31.69h30.87v-31.2h223.08v637.72h-253.96v-63.07h30.48V223.7Z"/><path class="cls-1" d="M6878.37,798.83h-287.05v-63.33h31.01v-32.09h31.79V160.83h191.62v542.14h32.14v32.11h31.52v31.7h-31.02v32.05Z"/><path class="cls-1" d="M5150.02,511.59h32.14v31.4h31.3v159.87h-30.6v31.75h-32.11v32.12h-64.07v31.71h-127.09v-62.88h30.35v-223.9h-30.43v-63.61h30.56v-192.31h-30.68v-95.01h94.8v31.09h95.8v31.73h32.14v31.77h31.31v127.91h-30.92v64.07h-63.49v32.17h30.98v32.11Z"/><path class="cls-1" d="M926.58,223.69h-30.49v-63.14h94.78v31h63.75v32.09h32.14v32.1h31.8v63.68h32.12v127.96h31.68v95.6h-31.19v96h-31.76v63.7h-32.11v32.1h-32.13v31.74h-63.7v31.98h-95.39v-63.06h30.49V223.69Z"/><path class="cls-1" d="M2142.37,223.68h-30.46v-62.83h94.46v30.74h32.15v32.11h63.81v63.69h32.15v64.07h31.72v287.37h-31.16v64.06h-31.78v31.76h-32.12v32.11h-64.06v31.69h-95.09v-62.94h30.4V223.68Z"/><path class="cls-1" d="M1823.86,383.58h31.16v-95.28h31.74v-32.08h32.11v-32.08h32.11v-32.08h63.78v-31.22h63.15v62.66h-30.41v511.49h30.52v63.72h-94.55v-31.43h-32.05v-32.09h-32.12v-31.74h-31.78v-32.06h-32.14v-64.04h-31.52v-223.77Z"/><path class="cls-1" d="M639.42,671.52v-127.91h-31.29v-127.9h30.9v-95.61h32.11v-64.04h32.11v-31.75h31.74v-32.08h64.1v-31.68h63.28v94.72h-30.6v447.58h30.34v95.76h-62.66v-31.49h-63.7v-31.74h-32.09v-32.1h-32.12v-31.75h-32.12Z"/><path class="cls-1" d="M4574.11,160.66v222.04h-31.04v-30.97h-32.13v-32.09h-31.75v-63.71h-95.77v-95.26h190.69Z"/><path class="cls-1" d="M5726.23,160.63v30.89h31.39v159.82h-31.19v31.43h-31.69v-63.15h-31.73v-31.74h-32.08v-32.07h-63.73v-95.19h159.02Z"/><path class="cls-1" d="M4510.65,671.57v-63.65h31.7v-31.77h31.37v222.52h-190.24v-63.03h31.04v-32.04h64.06v-32.04h32.07Z"/><path class="cls-1" d="M5662.42,639.55h32.08v-31.58h63.21v190.53h-190.22v-62.91h30.87v-32.05h64.06v-63.99Z"/><path class="cls-1" d="M6495.36,160.56h94.59v30.85h31.3v63.98h-30.9v64.05h-31.76v63.2h-63.23v-222.09Z"/><path class="cls-1" d="M5598.85,415.7v-31.74h31.64v-31.49h31.05v253.87h-30.79v-30.76h-31.78v-64.01h-31.58v-95.88h31.47Z"/><path class="cls-1" d="M4383.41,447.63h31.06v-63.64h32.1v-31.68h31.28v254.17h-30.92v-31.18h-31.74v-63.7h-31.78v-63.98Z"/></g></svg>